<mxfile host="Electron" agent="Mozilla/5.0 (Windows NT 10.0; Win64; x64) AppleWebKit/537.36 (KHTML, like Gecko) draw.io/24.7.8 Chrome/128.0.6613.36 Electron/32.0.1 Safari/537.36" version="24.7.8">
  <diagram name="Page-1" id="zDNcFYq1DDiC5ZtPE1V3">
    <mxGraphModel dx="3140" dy="860" grid="1" gridSize="10" guides="1" tooltips="1" connect="1" arrows="1" fold="1" page="1" pageScale="1" pageWidth="850" pageHeight="1100" math="0" shadow="0">
      <root>
        <mxCell id="0" />
        <mxCell id="1" parent="0" />
        <mxCell id="ZLn2NeSkSqopkDhdTZ_Y-6" value="" style="rounded=0;whiteSpace=wrap;html=1;" parent="1" vertex="1">
          <mxGeometry width="850" height="600" as="geometry" />
        </mxCell>
        <mxCell id="ZLn2NeSkSqopkDhdTZ_Y-7" value="" style="rounded=0;whiteSpace=wrap;html=1;" parent="1" vertex="1">
          <mxGeometry x="130" y="10" width="700" height="60" as="geometry" />
        </mxCell>
        <mxCell id="ZLn2NeSkSqopkDhdTZ_Y-8" value="" style="rounded=0;whiteSpace=wrap;html=1;" parent="1" vertex="1">
          <mxGeometry x="10" y="10" width="110" height="580" as="geometry" />
        </mxCell>
        <mxCell id="ZLn2NeSkSqopkDhdTZ_Y-9" value="" style="rounded=0;whiteSpace=wrap;html=1;" parent="1" vertex="1">
          <mxGeometry x="130" y="90" width="700" height="490" as="geometry" />
        </mxCell>
        <mxCell id="ZLn2NeSkSqopkDhdTZ_Y-10" value="Icon" style="rounded=0;whiteSpace=wrap;html=1;" parent="1" vertex="1">
          <mxGeometry x="22.5" y="110" width="85" height="40" as="geometry" />
        </mxCell>
        <mxCell id="ZLn2NeSkSqopkDhdTZ_Y-11" value="icon" style="rounded=0;whiteSpace=wrap;html=1;" parent="1" vertex="1">
          <mxGeometry x="22.5" y="180" width="85" height="40" as="geometry" />
        </mxCell>
        <mxCell id="ZLn2NeSkSqopkDhdTZ_Y-12" value="icon" style="rounded=0;whiteSpace=wrap;html=1;" parent="1" vertex="1">
          <mxGeometry x="22.5" y="390" width="85" height="40" as="geometry" />
        </mxCell>
        <mxCell id="ZLn2NeSkSqopkDhdTZ_Y-13" value="icon" style="rounded=0;whiteSpace=wrap;html=1;" parent="1" vertex="1">
          <mxGeometry x="22.5" y="320" width="85" height="40" as="geometry" />
        </mxCell>
        <mxCell id="ZLn2NeSkSqopkDhdTZ_Y-14" value="icon" style="rounded=0;whiteSpace=wrap;html=1;" parent="1" vertex="1">
          <mxGeometry x="22.5" y="250" width="85" height="40" as="geometry" />
        </mxCell>
        <mxCell id="ZLn2NeSkSqopkDhdTZ_Y-15" value="icon" style="rounded=0;whiteSpace=wrap;html=1;" parent="1" vertex="1">
          <mxGeometry x="22.5" y="450" width="85" height="40" as="geometry" />
        </mxCell>
        <mxCell id="ZLn2NeSkSqopkDhdTZ_Y-16" value="icon" style="rounded=0;whiteSpace=wrap;html=1;" parent="1" vertex="1">
          <mxGeometry x="22.5" y="510" width="85" height="40" as="geometry" />
        </mxCell>
        <mxCell id="ZLn2NeSkSqopkDhdTZ_Y-17" value="" style="rounded=0;whiteSpace=wrap;html=1;" parent="1" vertex="1">
          <mxGeometry x="350" y="100" width="470" height="230" as="geometry" />
        </mxCell>
        <mxCell id="ZLn2NeSkSqopkDhdTZ_Y-18" value="&lt;h3&gt;&lt;br&gt;&lt;/h3&gt;" style="rounded=0;whiteSpace=wrap;html=1;align=left;" parent="1" vertex="1">
          <mxGeometry x="350" y="340" width="470" height="240" as="geometry" />
        </mxCell>
        <mxCell id="ZLn2NeSkSqopkDhdTZ_Y-21" value="" style="rounded=0;whiteSpace=wrap;html=1;" parent="1" vertex="1">
          <mxGeometry x="140" y="100" width="200" height="470" as="geometry" />
        </mxCell>
        <mxCell id="ZLn2NeSkSqopkDhdTZ_Y-22" value="chart" style="rounded=0;whiteSpace=wrap;html=1;" parent="1" vertex="1">
          <mxGeometry x="150" y="120" width="180" height="90" as="geometry" />
        </mxCell>
        <mxCell id="ZLn2NeSkSqopkDhdTZ_Y-23" value="&#xa;&lt;span style=&quot;color: rgb(0, 0, 0); font-family: Helvetica; font-size: 12px; font-style: normal; font-variant-ligatures: normal; font-variant-caps: normal; font-weight: 400; letter-spacing: normal; orphans: 2; text-align: center; text-indent: 0px; text-transform: none; widows: 2; word-spacing: 0px; -webkit-text-stroke-width: 0px; white-space: normal; background-color: rgb(251, 251, 251); text-decoration-thickness: initial; text-decoration-style: initial; text-decoration-color: initial; display: inline !important; float: none;&quot;&gt;chart&lt;/span&gt;&#xa;&#xa;" style="rounded=0;whiteSpace=wrap;html=1;" parent="1" vertex="1">
          <mxGeometry x="150" y="225" width="180" height="90" as="geometry" />
        </mxCell>
        <mxCell id="ZLn2NeSkSqopkDhdTZ_Y-24" value="&#xa;&lt;span style=&quot;color: rgb(0, 0, 0); font-family: Helvetica; font-size: 12px; font-style: normal; font-variant-ligatures: normal; font-variant-caps: normal; font-weight: 400; letter-spacing: normal; orphans: 2; text-align: center; text-indent: 0px; text-transform: none; widows: 2; word-spacing: 0px; -webkit-text-stroke-width: 0px; white-space: normal; background-color: rgb(251, 251, 251); text-decoration-thickness: initial; text-decoration-style: initial; text-decoration-color: initial; display: inline !important; float: none;&quot;&gt;chart&lt;/span&gt;&#xa;&#xa;" style="rounded=0;whiteSpace=wrap;html=1;" parent="1" vertex="1">
          <mxGeometry x="150" y="330" width="180" height="90" as="geometry" />
        </mxCell>
        <mxCell id="ZLn2NeSkSqopkDhdTZ_Y-25" value="chart" style="rounded=0;whiteSpace=wrap;html=1;" parent="1" vertex="1">
          <mxGeometry x="150" y="440" width="180" height="90" as="geometry" />
        </mxCell>
        <mxCell id="esLGcpH8ejOBYEAK4r9e-24" value="" style="edgeStyle=orthogonalEdgeStyle;rounded=0;orthogonalLoop=1;jettySize=auto;html=1;" edge="1" parent="1" source="ZLn2NeSkSqopkDhdTZ_Y-26" target="esLGcpH8ejOBYEAK4r9e-13">
          <mxGeometry relative="1" as="geometry" />
        </mxCell>
        <mxCell id="ZLn2NeSkSqopkDhdTZ_Y-26" value="" style="rounded=0;whiteSpace=wrap;html=1;" parent="1" vertex="1">
          <mxGeometry x="150" y="25" width="110" height="30" as="geometry" />
        </mxCell>
        <mxCell id="ZLn2NeSkSqopkDhdTZ_Y-27" value="" style="rounded=0;whiteSpace=wrap;html=1;" parent="1" vertex="1">
          <mxGeometry x="700" y="25" width="110" height="30" as="geometry" />
        </mxCell>
        <mxCell id="ZLn2NeSkSqopkDhdTZ_Y-28" value="" style="rounded=0;whiteSpace=wrap;html=1;" parent="1" vertex="1">
          <mxGeometry x="360" y="140" width="450" height="170" as="geometry" />
        </mxCell>
        <mxCell id="ZLn2NeSkSqopkDhdTZ_Y-29" value="chart" style="rounded=0;whiteSpace=wrap;html=1;" parent="1" vertex="1">
          <mxGeometry x="370" y="155" width="140" height="135" as="geometry" />
        </mxCell>
        <mxCell id="ZLn2NeSkSqopkDhdTZ_Y-30" value="chart" style="rounded=0;whiteSpace=wrap;html=1;" parent="1" vertex="1">
          <mxGeometry x="520" y="155" width="140" height="135" as="geometry" />
        </mxCell>
        <mxCell id="ZLn2NeSkSqopkDhdTZ_Y-31" value="chart" style="rounded=0;whiteSpace=wrap;html=1;" parent="1" vertex="1">
          <mxGeometry x="670" y="155" width="140" height="135" as="geometry" />
        </mxCell>
        <mxCell id="ZLn2NeSkSqopkDhdTZ_Y-32" value="Demographic" style="text;html=1;align=center;verticalAlign=middle;whiteSpace=wrap;rounded=0;" parent="1" vertex="1">
          <mxGeometry x="370" y="110" width="60" height="30" as="geometry" />
        </mxCell>
        <mxCell id="ZLn2NeSkSqopkDhdTZ_Y-33" value="income" style="text;html=1;align=center;verticalAlign=middle;whiteSpace=wrap;rounded=0;" parent="1" vertex="1">
          <mxGeometry x="350" y="340" width="60" height="30" as="geometry" />
        </mxCell>
        <mxCell id="ZLn2NeSkSqopkDhdTZ_Y-35" value="title" style="text;html=1;align=center;verticalAlign=middle;whiteSpace=wrap;rounded=0;" parent="1" vertex="1">
          <mxGeometry x="160" y="30" width="60" height="30" as="geometry" />
        </mxCell>
        <mxCell id="ZLn2NeSkSqopkDhdTZ_Y-37" value="icon" style="text;html=1;align=center;verticalAlign=middle;whiteSpace=wrap;rounded=0;" parent="1" vertex="1">
          <mxGeometry x="730" y="25" width="60" height="30" as="geometry" />
        </mxCell>
        <mxCell id="ZLn2NeSkSqopkDhdTZ_Y-38" value="" style="rounded=0;whiteSpace=wrap;html=1;" parent="1" vertex="1">
          <mxGeometry x="360" y="380" width="450" height="190" as="geometry" />
        </mxCell>
        <mxCell id="ZLn2NeSkSqopkDhdTZ_Y-39" value="chart" style="rounded=0;whiteSpace=wrap;html=1;" parent="1" vertex="1">
          <mxGeometry x="380" y="402.5" width="140" height="135" as="geometry" />
        </mxCell>
        <mxCell id="ZLn2NeSkSqopkDhdTZ_Y-40" value="chart" style="rounded=0;whiteSpace=wrap;html=1;" parent="1" vertex="1">
          <mxGeometry x="610" y="402.5" width="140" height="135" as="geometry" />
        </mxCell>
        <mxCell id="ZLn2NeSkSqopkDhdTZ_Y-41" value="" style="rounded=0;whiteSpace=wrap;html=1;" parent="1" vertex="1">
          <mxGeometry x="350" y="690" width="170" height="250" as="geometry" />
        </mxCell>
        <mxCell id="ZLn2NeSkSqopkDhdTZ_Y-42" value="title" style="rounded=0;whiteSpace=wrap;html=1;" parent="1" vertex="1">
          <mxGeometry x="380" y="700" width="120" height="60" as="geometry" />
        </mxCell>
        <mxCell id="ZLn2NeSkSqopkDhdTZ_Y-43" value="chart" style="rounded=0;whiteSpace=wrap;html=1;" parent="1" vertex="1">
          <mxGeometry x="380" y="785" width="120" height="135" as="geometry" />
        </mxCell>
        <mxCell id="esLGcpH8ejOBYEAK4r9e-3" value="" style="rounded=0;whiteSpace=wrap;html=1;" vertex="1" parent="1">
          <mxGeometry x="-870" width="850" height="600" as="geometry" />
        </mxCell>
        <mxCell id="esLGcpH8ejOBYEAK4r9e-4" value="" style="rounded=0;whiteSpace=wrap;html=1;" vertex="1" parent="1">
          <mxGeometry x="-855" y="10" width="110" height="580" as="geometry" />
        </mxCell>
        <mxCell id="esLGcpH8ejOBYEAK4r9e-6" value="icon" style="rounded=0;whiteSpace=wrap;html=1;" vertex="1" parent="1">
          <mxGeometry x="-842.5" y="180" width="85" height="40" as="geometry" />
        </mxCell>
        <mxCell id="esLGcpH8ejOBYEAK4r9e-7" value="icon" style="rounded=0;whiteSpace=wrap;html=1;" vertex="1" parent="1">
          <mxGeometry x="-842.5" y="390" width="85" height="40" as="geometry" />
        </mxCell>
        <mxCell id="esLGcpH8ejOBYEAK4r9e-8" value="icon" style="rounded=0;whiteSpace=wrap;html=1;" vertex="1" parent="1">
          <mxGeometry x="-842.5" y="320" width="85" height="40" as="geometry" />
        </mxCell>
        <mxCell id="esLGcpH8ejOBYEAK4r9e-9" value="icon" style="rounded=0;whiteSpace=wrap;html=1;" vertex="1" parent="1">
          <mxGeometry x="-842.5" y="250" width="85" height="40" as="geometry" />
        </mxCell>
        <mxCell id="esLGcpH8ejOBYEAK4r9e-10" value="icon" style="rounded=0;whiteSpace=wrap;html=1;" vertex="1" parent="1">
          <mxGeometry x="-842.5" y="450" width="85" height="40" as="geometry" />
        </mxCell>
        <mxCell id="esLGcpH8ejOBYEAK4r9e-11" value="icon" style="rounded=0;whiteSpace=wrap;html=1;" vertex="1" parent="1">
          <mxGeometry x="-842.5" y="510" width="85" height="40" as="geometry" />
        </mxCell>
        <mxCell id="esLGcpH8ejOBYEAK4r9e-12" value="" style="rounded=0;whiteSpace=wrap;html=1;" vertex="1" parent="1">
          <mxGeometry x="-700" y="30" width="110" height="30" as="geometry" />
        </mxCell>
        <mxCell id="esLGcpH8ejOBYEAK4r9e-13" value="" style="rounded=0;whiteSpace=wrap;html=1;" vertex="1" parent="1">
          <mxGeometry x="-730" y="10" width="690" height="60" as="geometry" />
        </mxCell>
        <mxCell id="esLGcpH8ejOBYEAK4r9e-17" style="edgeStyle=orthogonalEdgeStyle;rounded=0;orthogonalLoop=1;jettySize=auto;html=1;exitX=0.25;exitY=0;exitDx=0;exitDy=0;entryX=0.371;entryY=-0.056;entryDx=0;entryDy=0;entryPerimeter=0;" edge="1" parent="1" source="ZLn2NeSkSqopkDhdTZ_Y-26" target="ZLn2NeSkSqopkDhdTZ_Y-26">
          <mxGeometry relative="1" as="geometry" />
        </mxCell>
        <mxCell id="esLGcpH8ejOBYEAK4r9e-18" value="" style="rounded=0;whiteSpace=wrap;html=1;" vertex="1" parent="1">
          <mxGeometry x="-730" y="90" width="690" height="480" as="geometry" />
        </mxCell>
        <mxCell id="esLGcpH8ejOBYEAK4r9e-20" value="" style="rounded=0;whiteSpace=wrap;html=1;" vertex="1" parent="1">
          <mxGeometry x="-180" y="20" width="120" height="40" as="geometry" />
        </mxCell>
        <mxCell id="esLGcpH8ejOBYEAK4r9e-22" value="icon" style="text;html=1;align=center;verticalAlign=middle;whiteSpace=wrap;rounded=0;" vertex="1" parent="1">
          <mxGeometry x="-150" y="30" width="60" height="30" as="geometry" />
        </mxCell>
        <mxCell id="esLGcpH8ejOBYEAK4r9e-23" value="Title" style="text;html=1;align=center;verticalAlign=middle;whiteSpace=wrap;rounded=0;" vertex="1" parent="1">
          <mxGeometry x="-670" y="25" width="60" height="30" as="geometry" />
        </mxCell>
        <mxCell id="esLGcpH8ejOBYEAK4r9e-26" value="logo" style="rounded=0;whiteSpace=wrap;html=1;" vertex="1" parent="1">
          <mxGeometry x="20" y="40" width="85" height="40" as="geometry" />
        </mxCell>
        <mxCell id="esLGcpH8ejOBYEAK4r9e-27" value="Title" style="rounded=0;whiteSpace=wrap;html=1;" vertex="1" parent="1">
          <mxGeometry x="-700" y="20" width="120" height="40" as="geometry" />
        </mxCell>
        <mxCell id="esLGcpH8ejOBYEAK4r9e-29" value="logo" style="rounded=0;whiteSpace=wrap;html=1;" vertex="1" parent="1">
          <mxGeometry x="-842.5" y="25" width="85" height="40" as="geometry" />
        </mxCell>
        <mxCell id="esLGcpH8ejOBYEAK4r9e-30" value="icon" style="rounded=0;whiteSpace=wrap;html=1;" vertex="1" parent="1">
          <mxGeometry x="-842.5" y="100" width="85" height="40" as="geometry" />
        </mxCell>
        <mxCell id="esLGcpH8ejOBYEAK4r9e-31" value="" style="rounded=0;whiteSpace=wrap;html=1;" vertex="1" parent="1">
          <mxGeometry x="-720" y="105" width="640" height="40" as="geometry" />
        </mxCell>
        <mxCell id="esLGcpH8ejOBYEAK4r9e-32" value="Employee List" style="text;html=1;align=center;verticalAlign=middle;whiteSpace=wrap;rounded=0;" vertex="1" parent="1">
          <mxGeometry x="-710" y="110" width="100" height="30" as="geometry" />
        </mxCell>
        <mxCell id="esLGcpH8ejOBYEAK4r9e-33" value="" style="rounded=0;whiteSpace=wrap;html=1;" vertex="1" parent="1">
          <mxGeometry x="-720" y="155" width="640" height="60" as="geometry" />
        </mxCell>
        <mxCell id="esLGcpH8ejOBYEAK4r9e-34" value="Filter" style="rounded=0;whiteSpace=wrap;html=1;" vertex="1" parent="1">
          <mxGeometry x="-690" y="165" width="90" height="40" as="geometry" />
        </mxCell>
        <mxCell id="esLGcpH8ejOBYEAK4r9e-35" value="Filter" style="rounded=0;whiteSpace=wrap;html=1;" vertex="1" parent="1">
          <mxGeometry x="-530" y="165" width="90" height="40" as="geometry" />
        </mxCell>
        <mxCell id="esLGcpH8ejOBYEAK4r9e-36" value="Filter" style="rounded=0;whiteSpace=wrap;html=1;" vertex="1" parent="1">
          <mxGeometry x="-370" y="165" width="90" height="40" as="geometry" />
        </mxCell>
        <mxCell id="esLGcpH8ejOBYEAK4r9e-37" value="Filter" style="rounded=0;whiteSpace=wrap;html=1;" vertex="1" parent="1">
          <mxGeometry x="-200" y="165" width="90" height="40" as="geometry" />
        </mxCell>
        <mxCell id="esLGcpH8ejOBYEAK4r9e-38" value="" style="rounded=0;whiteSpace=wrap;html=1;" vertex="1" parent="1">
          <mxGeometry x="-720" y="245" width="660" height="315" as="geometry" />
        </mxCell>
        <mxCell id="esLGcpH8ejOBYEAK4r9e-39" value="list" style="text;html=1;align=center;verticalAlign=middle;whiteSpace=wrap;rounded=0;" vertex="1" parent="1">
          <mxGeometry x="-455" y="403" width="60" height="30" as="geometry" />
        </mxCell>
        <mxCell id="esLGcpH8ejOBYEAK4r9e-40" value="" style="rounded=0;whiteSpace=wrap;html=1;" vertex="1" parent="1">
          <mxGeometry x="-370" y="700" width="320" height="310" as="geometry" />
        </mxCell>
        <mxCell id="esLGcpH8ejOBYEAK4r9e-41" value="" style="rounded=0;whiteSpace=wrap;html=1;" vertex="1" parent="1">
          <mxGeometry x="-340" y="730" width="260" height="100" as="geometry" />
        </mxCell>
        <mxCell id="esLGcpH8ejOBYEAK4r9e-42" value="" style="rounded=0;whiteSpace=wrap;html=1;" vertex="1" parent="1">
          <mxGeometry x="-330" y="750" width="100" height="60" as="geometry" />
        </mxCell>
        <mxCell id="esLGcpH8ejOBYEAK4r9e-43" value="" style="rounded=0;whiteSpace=wrap;html=1;" vertex="1" parent="1">
          <mxGeometry x="-205" y="750" width="100" height="60" as="geometry" />
        </mxCell>
        <mxCell id="esLGcpH8ejOBYEAK4r9e-44" value="title&lt;span style=&quot;color: rgba(0, 0, 0, 0); font-family: monospace; font-size: 0px; text-align: start; text-wrap: nowrap;&quot;&gt;%3CmxGraphModel%3E%3Croot%3E%3CmxCell%20id%3D%220%22%2F%3E%3CmxCell%20id%3D%221%22%20parent%3D%220%22%2F%3E%3CmxCell%20id%3D%222%22%20value%3D%22%22%20style%3D%22rounded%3D0%3BwhiteSpace%3Dwrap%3Bhtml%3D1%3B%22%20vertex%3D%221%22%20parent%3D%221%22%3E%3CmxGeometry%20x%3D%22-330%22%20y%3D%22750%22%20width%3D%22100%22%20height%3D%2260%22%20as%3D%22geometry%22%2F%3E%3C%2FmxCell%3E%3C%2Froot%3E%3C%2FmxGraphModel%3E&lt;/span&gt;" style="text;html=1;align=center;verticalAlign=middle;whiteSpace=wrap;rounded=0;" vertex="1" parent="1">
          <mxGeometry x="-310" y="765" width="70" height="35" as="geometry" />
        </mxCell>
        <mxCell id="esLGcpH8ejOBYEAK4r9e-45" value="icon&lt;span style=&quot;color: rgba(0, 0, 0, 0); font-family: monospace; font-size: 0px; text-align: start; text-wrap: nowrap;&quot;&gt;%3CmxGraphModel%3E%3Croot%3E%3CmxCell%20id%3D%220%22%2F%3E%3CmxCell%20id%3D%221%22%20parent%3D%220%22%2F%3E%3CmxCell%20id%3D%222%22%20value%3D%22%22%20style%3D%22rounded%3D0%3BwhiteSpace%3Dwrap%3Bhtml%3D1%3B%22%20vertex%3D%221%22%20parent%3D%221%22%3E%3CmxGeometry%20x%3D%22-330%22%20y%3D%22750%22%20width%3D%22100%22%20height%3D%2260%22%20as%3D%22geometry%22%2F%3E%3C%2FmxCell%3E%3C%2Froot%3E%3C%2FmxGraphModel%3E&lt;/span&gt;" style="text;html=1;align=center;verticalAlign=middle;whiteSpace=wrap;rounded=0;" vertex="1" parent="1">
          <mxGeometry x="-190" y="765" width="70" height="35" as="geometry" />
        </mxCell>
        <mxCell id="esLGcpH8ejOBYEAK4r9e-48" value="" style="rounded=0;whiteSpace=wrap;html=1;" vertex="1" parent="1">
          <mxGeometry x="-347.5" y="840" width="275" height="140" as="geometry" />
        </mxCell>
        <mxCell id="esLGcpH8ejOBYEAK4r9e-49" value="" style="rounded=0;whiteSpace=wrap;html=1;" vertex="1" parent="1">
          <mxGeometry x="-270" y="850" width="120" height="60" as="geometry" />
        </mxCell>
        <mxCell id="esLGcpH8ejOBYEAK4r9e-50" value="" style="rounded=0;whiteSpace=wrap;html=1;" vertex="1" parent="1">
          <mxGeometry x="-270" y="910" width="120" height="60" as="geometry" />
        </mxCell>
        <mxCell id="esLGcpH8ejOBYEAK4r9e-51" value="filter" style="text;html=1;align=center;verticalAlign=middle;whiteSpace=wrap;rounded=0;" vertex="1" parent="1">
          <mxGeometry x="-250" y="865" width="60" height="30" as="geometry" />
        </mxCell>
        <mxCell id="esLGcpH8ejOBYEAK4r9e-52" value="filter" style="text;html=1;align=center;verticalAlign=middle;whiteSpace=wrap;rounded=0;" vertex="1" parent="1">
          <mxGeometry x="-250" y="920" width="60" height="30" as="geometry" />
        </mxCell>
      </root>
    </mxGraphModel>
  </diagram>
</mxfile>
